[h264 @ 0x5574dbd0d400] Reinit context to 1920x1088, pix_fmt: yuv420p
Input #0, mov,mp4,m4a,3gp,3g2,mj2, from '/var/www/html/project/media/video/original/20230516_001155.mp4':
  Metadata:
    major_brand     : mp42
    minor_version   : 0
    compatible_brands: isommp42
    creation_time   : 2023-05-15T22:13:00.000000Z
    com.android.version: 13
    com.android.capture.fps: 60.000000
  Duration: 00:01:04.51, start: 0.000000, bitrate: 27765 kb/s
    Stream #0:0(eng): Video: h264 (High), 1 reference frame (avc1 / 0x31637661), yuv420p(tv, bt709, left), 1920x1080 (1920x1088), 27505 kb/s, 56.13 fps, 59.94 tbr, 90k tbn, 180k tbc (default)
    Metadata:
      creation_time   : 2023-05-15T22:13:00.000000Z
      handler_name    : VideoHandle
    Stream #0:1(eng): Audio: aac (LC) (mp4a / 0x6134706D), 48000 Hz, stereo, fltp, 256 kb/s (default)
    Metadata:
      creation_time   : 2023-05-15T22:13:00.000000Z
      handler_name    : SoundHandle
Input #1, png_pipe, from '/var/www/html/project/static/images/templates/logo.png':
  Duration: N/A, bitrate: N/A
    Stream #1:0: Video: png, 1 reference frame, rgba(pc), 1920x1080 [SAR 2835:2835 DAR 16:9], 25 tbr, 25 tbn, 25 tbc
[h264 @ 0x5574dbd13000] Reinit context to 1280x720, pix_fmt: yuv420p
Input #2, mov,mp4,m4a,3gp,3g2,mj2, from '/var/www/html/project/static/images/templates/Codino.mp4':
  Metadata:
    major_brand     : mp42
    minor_version   : 1
    compatible_brands: isommp41mp42
    creation_time   : 2021-07-11T07:02:58.000000Z
  Duration: 00:00:02.00, start: 0.000000, bitrate: 1007 kb/s
    Stream #2:0(ita): Audio: aac (LC) (mp4a / 0x6134706D), 44100 Hz, stereo, fltp, 102 kb/s (default)
    Metadata:
      creation_time   : 2021-07-11T07:02:58.000000Z
      handler_name    : Core Media Audio
    Stream #2:1(und): Video: h264 (High), 1 reference frame (avc1 / 0x31637661), yuv420p(tv, bt709, progressive, left), 1280x720 [SAR 1:1 DAR 16:9], 813 kb/s, 25 fps, 25 tbr, 25k tbn, 50k tbc (default)
    Metadata:
      creation_time   : 2021-07-11T07:02:58.000000Z
      handler_name    : Core Media Video
[Parsed_scale_0 @ 0x5574dbd79d00] w:1280 h:720 flags:'bilinear' interl:0
[Parsed_scale_2 @ 0x5574dbe0ff00] w:1280 h:720 flags:'bilinear' interl:0
[Parsed_scale_4 @ 0x5574dbd41580] w:1280 h:720 flags:'bilinear' interl:0
Stream mapping:
  Stream #0:0 (h264) -> scale
  Stream #0:1 (aac) -> concat:in0:a0
  Stream #1:0 (png) -> scale
  Stream #2:0 (aac) -> concat:in1:a0
  Stream #2:1 (h264) -> scale
  concat:out:v0 -> Stream #0:0 (libx264)
  concat:out:a0 -> Stream #0:1 (aac)
Press [q] to stop, [?] for help
[h264 @ 0x5574dbd3e4c0] Reinit context to 1920x1088, pix_fmt: yuv420p
[h264 @ 0x5574dc2c4500] Reinit context to 1280x720, pix_fmt: yuv420p
[Parsed_scale_0 @ 0x5574dd80dc40] w:1280 h:720 flags:'bilinear' interl:0
[Parsed_scale_2 @ 0x5574dd8163c0] w:1280 h:720 flags:'bilinear' interl:0
[Parsed_scale_4 @ 0x5574dd817780] w:1280 h:720 flags:'bilinear' interl:0
[graph 0 input from stream 0:0 @ 0x5574dd81bf00] w:1920 h:1080 pixfmt:yuv420p tb:1/90000 fr:60000/1001 sar:0/1 sws_param:flags=2
[graph 0 input from stream 1:0 @ 0x5574dd81cf00] w:1920 h:1080 pixfmt:rgba tb:1/25 fr:25/1 sar:2835/2835 sws_param:flags=2
[graph 0 input from stream 2:1 @ 0x5574dd81df80] w:1280 h:720 pixfmt:yuv420p tb:1/25000 fr:25/1 sar:1/1 sws_param:flags=2
[graph_0_in_0_1 @ 0x5574dd81ef40] tb:1/48000 samplefmt:fltp samplerate:48000 chlayout:0x3
[graph_0_in_2_0 @ 0x5574dd820080] tb:1/44100 samplefmt:fltp samplerate:44100 chlayout:0x3
[Parsed_concat_7 @ 0x5574dd819f40] auto-inserting filter 'auto_resampler_0' between the filter 'graph_0_in_2_0' and the filter 'Parsed_concat_7'
[Parsed_scale_0 @ 0x5574dd80dc40] w:1920 h:1080 fmt:yuv420p sar:0/1 -> w:1280 h:720 fmt:yuv420p sar:0/1 flags:0x2
[Parsed_setsar_1 @ 0x5574dbe15c80] w:1280 h:720 sar:0/1 dar:16/9 -> sar:1/1 dar:16/9
[Parsed_scale_2 @ 0x5574dd8163c0] w:1920 h:1080 fmt:rgba sar:2835/2835 -> w:1280 h:720 fmt:yuva420p sar:1/1 flags:0x2
[Parsed_setsar_3 @ 0x5574dd816a80] w:1280 h:720 sar:1/1 dar:16/9 -> sar:1/1 dar:16/9
[Parsed_overlay_6 @ 0x5574dd818e00] main w:1280 h:720 fmt:yuv420p overlay w:1280 h:720 fmt:yuva420p
[Parsed_overlay_6 @ 0x5574dd818e00] [framesync @ 0x5574dd818f68] Selected 1/90000 time base
[Parsed_overlay_6 @ 0x5574dd818e00] [framesync @ 0x5574dd818f68] Sync level 2
[Parsed_scale_4 @ 0x5574dd817780] w:1280 h:720 fmt:yuv420p sar:1/1 -> w:1280 h:720 fmt:yuv420p sar:1/1 flags:0x2
[Parsed_setsar_5 @ 0x5574dd818280] w:1280 h:720 sar:1/1 dar:16/9 -> sar:1/1 dar:16/9
[auto_resampler_0 @ 0x5574dd823b80] ch:2 chl:stereo fmt:fltp r:44100Hz -> ch:2 chl:stereo fmt:fltp r:48000Hz
[libx264 @ 0x5574dbd41000] using SAR=1/1
[libx264 @ 0x5574dbd41000] using cpu capabilities: MMX2 SSE2Fast SSSE3 SSE4.2 AVX FMA3 BMI2 AVX2
[libx264 @ 0x5574dbd41000] profile High, level 3.2
[libx264 @ 0x5574dbd41000] 264 - core 155 r2917 0a84d98 - H.264/MPEG-4 AVC codec - Copyleft 2003-2018 - http://www.videolan.org/x264.html - options: cabac=1 ref=1 deblock=1:0:0 analyse=0x3:0x113 me=hex subme=2 psy=1 psy_rd=1.00:0.00 mixed_ref=0 me_range=16 chroma_me=1 trellis=0 8x8dct=1 cqm=0 deadzone=21,11 fast_pskip=1 chroma_qp_offset=0 threads=22 lookahead_threads=5 sliced_threads=0 nr=0 decimate=1 interlaced=0 bluray_compat=0 constrained_intra=0 bframes=3 b_pyramid=2 b_adapt=1 b_bias=0 direct=1 weightb=1 open_gop=0 weightp=1 keyint=250 keyint_min=25 scenecut=40 intra_refresh=0 rc_lookahead=10 rc=crf mbtree=1 crf=18.0 qcomp=0.60 qpmin=0 qpmax=69 qpstep=4 ip_ratio=1.40 aq=1:1.00
Output #0, mp4, to '/var/www/html/project/media/video/watermarks/20230516_001155.mp4':
  Metadata:
    major_brand     : mp42
    minor_version   : 0
    compatible_brands: isommp42
    com.android.capture.fps: 60.000000
    com.android.version: 13
    encoder         : Lavf58.29.100
    Stream #0:0: Video: h264 (libx264), 1 reference frame (avc1 / 0x31637661), yuv420p, 1280x720 [SAR 1:1 DAR 16:9], q=-1--1, 59.94 fps, 60k tbn, 59.94 tbc (default)
    Metadata:
      encoder         : Lavc58.54.100 libx264
    Side data:
      cpb: bitrate max/min/avg: 0/0/0 buffer size: 0 vbv_delay: -1
    Stream #0:1: Audio: aac (LC) (mp4a / 0x6134706D), 48000 Hz, stereo, fltp, delay 1024, 128 kb/s (default)
    Metadata:
      encoder         : Lavc58.54.100 aac
[Parsed_overlay_6 @ 0x5574dd818e00] [framesync @ 0x5574dd818f68] Sync level 0
[Parsed_concat_7 @ 0x5574dd819f40] EOF on in0:v0, 1 streams left in segment.
[Parsed_concat_7 @ 0x5574dd819f40] EOF on in0:a0, 0 streams left in segment.
[Parsed_concat_7 @ 0x5574dd819f40] Segment finished at pts=64511000
[Parsed_concat_7 @ 0x5574dd819f40] EOF on in1:v0, 1 streams left in segment.
[Parsed_concat_7 @ 0x5574dd819f40] EOF on in1:a0, 0 streams left in segment.
[Parsed_concat_7 @ 0x5574dd819f40] Segment finished at pts=66529687
No more output streams to write to, finishing.
frame= 3671 fps= 73 q=-1.0 Lsize=   73154kB time=00:01:06.53 bitrate=9006.6kbits/s speed=1.32x    
[AVIOContext @ 0x5574dbd0b440] Statistics: 0 seeks, 100 writeouts
video:72011kB audio:1042kB subtitle:0kB other streams:0kB global headers:0kB muxing overhead: 0.137869%
Input file #0 (/var/www/html/project/media/video/original/20230516_001155.mp4):
  Input stream #0:0 (video): 3621 packets read (221784044 bytes); 3621 frames decoded; 
  Input stream #0:1 (audio): 3024 packets read (2064463 bytes); 3024 frames decoded (3096576 samples); 
  Total: 6645 packets (223848507 bytes) demuxed
Input file #1 (/var/www/html/project/static/images/templates/logo.png):
  Input stream #1:0 (video): 1 packets read (111578 bytes); 1 frames decoded; 
  Total: 1 packets (111578 bytes) demuxed
Input file #2 (/var/www/html/project/static/images/templates/Codino.mp4):
  Input stream #2:0 (audio): 89 packets read (26579 bytes); 87 frames decoded (89024 samples); 
  Input stream #2:1 (video): 50 packets read (203365 bytes); 50 frames decoded; 
  Total: 139 packets (229944 bytes) demuxed
Output file #0 (/var/www/html/project/media/video/watermarks/20230516_001155.mp4):
  Output stream #0:0 (video): 3671 frames encoded; 3671 packets muxed (73739520 bytes); 
  Output stream #0:1 (audio): 3119 frames encoded (3193473 samples); 3120 packets muxed (1067183 bytes); 
  Total: 6791 packets (74806703 bytes) muxed
[AVIOContext @ 0x5574dbe15100] Statistics: 2 seeks, 289 writeouts
[libx264 @ 0x5574dbd41000] frame I:15    Avg QP:20.37  size:177566
[libx264 @ 0x5574dbd41000] frame P:951   Avg QP:23.21  size: 50403
[libx264 @ 0x5574dbd41000] frame B:2705  Avg QP:26.58  size:  8555
[libx264 @ 0x5574dbd41000] consecutive B-frames:  1.2%  1.3%  1.5% 96.1%
[libx264 @ 0x5574dbd41000] mb I  I16..4:  2.3%  7.2% 90.5%
[libx264 @ 0x5574dbd41000] mb P  I16..4:  2.0%  3.7%  2.8%  P16..4: 46.1% 20.9% 19.4%  0.0%  0.0%    skip: 5.1%
[libx264 @ 0x5574dbd41000] mb B  I16..4:  0.4%  0.3%  0.0%  B16..8: 17.8%  7.3%  1.4%  direct:18.1%  skip:54.6%  L0:23.4% L1:39.0% BI:37.7%
[libx264 @ 0x5574dbd41000] 8x8 transform intra:38.8% inter:39.5%
[libx264 @ 0x5574dbd41000] coded y,uvDC,uvAC intra: 74.6% 50.5% 15.8% inter: 28.1% 10.3% 0.9%
[libx264 @ 0x5574dbd41000] i16 v,h,dc,p: 32% 20% 38%  9%
[libx264 @ 0x5574dbd41000] i8 v,h,dc,ddl,ddr,vr,hd,vl,hu: 17% 14% 30%  5%  7%  7%  7%  6%  6%
[libx264 @ 0x5574dbd41000] i4 v,h,dc,ddl,ddr,vr,hd,vl,hu: 17% 16% 11%  7% 11%  9% 12%  8%  9%
[libx264 @ 0x5574dbd41000] i8c dc,h,v,p: 55% 19% 20%  5%
[libx264 @ 0x5574dbd41000] Weighted P-Frames: Y:7.4% UV:0.8%
[libx264 @ 0x5574dbd41000] kb/s:8870.87
[aac @ 0x5574dbe0df00] Qavg: 983.002
[AVIOContext @ 0x5574dbd143c0] Statistics: 223932661 bytes read, 2 seeks
[AVIOContext @ 0x5574dbd1fa80] Statistics: 111578 bytes read, 0 seeks
[AVIOContext @ 0x5574dbd4d980] Statistics: 1530915 bytes read, 42 seeks
